<?xml version="1.0" encoding="UTF-8"?>
<svg id="Layer_1" data-name="Layer 1" xmlns="http://www.w3.org/2000/svg" viewBox="0 0 2500 2500">
  <path d="m2470.88,122.03C2235.6,74.97,1925.83,18.57,1616.28,0c-.78-.03-1.44.32-2.21.34-1.88,0-3.55.54-5.41.83-4.11.7-7.88,1.9-11.4,3.78-1.02.56-2.25.41-3.22,1.07-231.61,154.35-456.7,154.3-688.08,0-1.19-.8-2.67-.65-3.93-1.3-3.38-1.76-6.9-2.87-10.72-3.54-1.85-.29-3.5-.85-5.38-.85-.74-.02-1.41-.37-2.16-.34C574.28,18.57,264.46,74.97,29.11,122.03c-19.24,3.85-31.92,22.33-28.58,41.69l121.4,703.99c1.7,9.62,7.19,18.17,15.23,23.69,8.03,5.55,18,7.58,27.62,5.66l346.84-69.36c23.43-4.82,47.54,1.33,66.06,16.5,18.56,15.2,29.2,37.7,29.2,61.67v1557.91c0,20.01,16.24,36.23,36.22,36.23h1213.78c19.98,0,36.22-16.22,36.22-36.23V905.86c0-23.97,10.64-46.44,29.21-61.64,18.45-15.23,42.51-21.28,66.11-16.52l346.84,69.39c9.56,1.87,19.53-.11,27.62-5.66,8.04-5.52,13.53-14.07,15.23-23.72l121.35-704.02c3.34-19.33-9.34-37.81-28.58-41.66Zm-900.28-16.87c-31.76,147.79-163.46,258.93-320.58,258.93s-288.88-111.14-320.64-258.93c212.93,118.13,428.07,118.19,641.22,0ZM77.96,186.19c16.4-3.24,33.22-6.51,50.25-9.8l109.08,632.27-50.26,10.05L77.96,186.19Zm601.37,2241.36v-48.93h1141.33v48.93H679.33ZM1876.36,788.18c-35.38,29.04-55.7,71.91-55.7,117.68v1400.31H679.33V905.86c0-45.79-20.32-88.67-55.7-117.71-35.31-28.95-81.22-40.5-126.27-31.5l-188.97,37.79L199.44,162.92c195.47-36.24,423.39-72,652.17-87.89,19.61,202.6,190.74,361.51,398.42,361.51s378.76-158.91,398.36-361.52c228.85,15.89,456.77,51.66,652.23,87.9l-108.96,631.54-188.97-37.81c-45-9.06-90.96,2.52-126.33,31.52Zm436.67,30.57l-50.26-10.06,109.08-632.29c17.01,3.28,33.81,6.55,50.19,9.79l-109.01,632.56Z"/>
</svg>